<svg id="visual" viewBox="0 0 960 540" width="960" height="540" xmlns="http://www.w3.org/2000/svg" xmlns:xlink="http://www.w3.org/1999/xlink" version="1.1"><rect x="0" y="0" width="960" height="540" fill="#001220"></rect><g fill="#22D822"><circle r="45" cx="864" cy="73"></circle><circle r="12" cx="788" cy="317"></circle><circle r="34" cx="130" cy="226"></circle><circle r="30" cx="253" cy="44"></circle><circle r="11" cx="103" cy="519"></circle><circle r="41" cx="503" cy="401"></circle><circle r="31" cx="43" cy="20"></circle><circle r="12" cx="390" cy="387"></circle><circle r="13" cx="753" cy="428"></circle><circle r="23" cx="232" cy="383"></circle><circle r="39" cx="942" cy="241"></circle><circle r="24" cx="674" cy="252"></circle><circle r="18" cx="861" cy="535"></circle><circle r="41" cx="673" cy="84"></circle><circle r="15" cx="324" cy="299"></circle><circle r="26" cx="91" cy="391"></circle><circle r="11" cx="417" cy="156"></circle><circle r="36" cx="323" cy="145"></circle><circle r="39" cx="217" cy="137"></circle><circle r="23" cx="751" cy="138"></circle><circle r="34" cx="286" cy="519"></circle><circle r="36" cx="416" cy="252"></circle><circle r="25" cx="863" cy="414"></circle><circle r="43" cx="481" cy="70"></circle><circle r="28" cx="521" cy="227"></circle><circle r="28" cx="598" cy="509"></circle><circle r="24" cx="52" cy="300"></circle><circle r="16" cx="952" cy="51"></circle><circle r="26" cx="721" cy="525"></circle></g></svg>